# xmcd
# Track frame offsets:
# 182
# 11512
# 23357
# 40090
# 59917
# 73815
# 91825
# 110842
# 124375
# 140167
#
# Disc length: 2024 seconds
# Revision: 1
# Processed by: cddbd v1.4PL0 Copyright (c) Steve Scherf et al.
# Submitted via: VisiTrax 2.9.3.171 - For more info visit www.synapsa.com
#
DISCID=9007e60a
DTITLE=Various Artist - Dance Club Country
DYEAR=1995
DGENRE=Country
TTITLE0=BYRD, Tracy - Holdin' Heaven
TTITLE1=STUART, Marty - Hillbilly Rock
TTITLE2=SHENANDOAH - If Bubba Can Dance (I Can Too) (Club Mix Version)
TTITLE3=GIBSON - MILLER BAND - Texas Tattoo (Extended Version)
TTITLE4=GREGG, Ricky Lynn - If I Had A Cheatin' Heart
TTITLE5=DIAMOND RIO - This Romeo Ain't Got Julie Yet
TTITLE6=TREVINO, Rick - Honky Tonk Crowd (Club Mix)
TTITLE7=BRANNEN, John - Lonesome Side Of Midnight
TTITLE8=CYRUS, Billy Ray - Wher'm I Gonna Live?
TTITLE9=ORRALL, Robert Ellis - Boom! It Was Over
EXTD=
EXTT0=
EXTT1=
EXTT2=
EXTT3=
EXTT4=
EXTT5=
EXTT6=
EXTT7=
EXTT8=
EXTT9=
PLAYORDER=
